{"title":"22.Jump.Street.2014.CAM.XViD-FANTA","uid":10509740,"size":1532687957,"categoryP":"video","categoryS":"movies","magnet":"?xt=urn:btih:712f0573ae5b05f843454f8e8a061cb46333905a&amp;dn=22.Jump.Street.2014.CAM.XViD-FANTA&amp;tr=udp%3A%2F%2Ftracker.openbittorrent.com%3A80&amp;tr=udp%3A%2F%2Fopen.demonii.com%3A1337&amp;tr=udp%3A%2F%2Ftracker.coppersurfer.tk%3A6969&amp;tr=udp%3A%2F%2Fexodus.desync.com%3A6969","seeders":9,"leechers":3,"uploader":"xxxlavalxxx","files":-1,"time":1404831789,"description":"[IMG]http://i.imgur.com/pIFdZyQ.jpg[/IMG]\n\n &lt;a href=&quot;\nhttp://www.imdb.com/title/tt2294449/&quot; rel=&quot;nofollow&quot; target=&quot;_NEW&quot;&gt;\nhttp://www.imdb.com/title/tt2294449/&lt;/a&gt;\n\n\nAfter making their way through high school (twice), big changes are in store for officers Schmidt and Jenko when they go deep undercover at a local college.\n\nDirectors: Phil Lord, Christopher Miller\nWriters: Michael Bacall (screenplay), Oren Uziel (screenplay)\nStars: Channing Tatum, Jonah Hill, Ice Cube \nGenres: Action | Comedy | Crime\nCountry: USA\nLanguage: English\n\n\nGeneral\nComplete name                            : 22.Jump.Street.2014.CAM.XViD-FANTA/22.Jump.Street.2014.CAM.XViD-FANTA.avi\nFormat                                   : AVI\nFormat/Info                              : Audio Video Interleave\nFormat profile                           : OpenDML\nFormat settings                          : rec\nFile size                                : 1.41 GiB\nDuration                                 : 1h 40mn\nOverall bit rate                         : 2 013 Kbps\nWriting application                      : AVI-Mux GUI 1.17.8.3, Feb 16 201019:42:50\n\nVideo\nID                                       : 0\nFormat                                   : MPEG-4 Visual\nFormat profile                           : Advanced Simple@L5\nFormat settings, BVOP                    : 2\nFormat settings, QPel                    : No\nFormat settings, GMC                     : No warppoints\nFormat settings, Matrix                  : Default (MPEG)\nCodec ID                                 : XVID\nCodec ID/Hint                            : XviD\nDuration                                 : 1h 40mn\nBit rate                                 : 1 816 Kbps\nWidth                                    : 720 pixels\nHeight                                   : 320 pixels\nDisplay aspect ratio                     : 2.25:1\nFrame rate                               : 23.976 fps\nColor space                              : YUV\nChroma subsampling                       : 4:2:0\nBit depth                                : 8 bits\nScan type                                : Progressive\nCompression mode                         : Lossy\nBits/(Pixel*Frame)                       : 0.329\nStream size                              : 1.27 GiB (90%)\nWriting library                          : XviD 1.2.1 (UTC 2008-12-04)\n\nAudio\nID                                       : 1\nFormat                                   : AC-3\nFormat/Info                              : Audio Coding 3\nMode extension                           : CM (complete main)\nCodec ID                                 : 2000\nDuration                                 : 1h 40mn\nBit rate mode                            : Constant\nBit rate                                 : 192 Kbps\nChannel(s)                               : 2 channels\nChannel positions                        : Front: L R\nSampling rate                            : 48.0 KHz\nBit depth                                : 16 bits\nCompression mode                         : Lossy\nStream size                              : 137 MiB (10%)\nAlignment                                : Aligned on interleaves\nInterleave, duration                     : 64 ms (1.53 video frames)\nInterleave, preload duration             : 192 ms\nTitle                                    : 22 Jump Street (2014) AUDIO ac3\n\n\ninfo\n &lt;a href=&quot;\nhttp://i.imgur.com/1C4SKDY.png&quot; rel=&quot;nofollow&quot; target=&quot;_NEW&quot;&gt;\nhttp://i.imgur.com/1C4SKDY.png&lt;/a&gt;\n\n\nscreens\n &lt;a href=&quot;\nhttp://i.imgur.com/fRrAWgj.jpg&quot; rel=&quot;nofollow&quot; target=&quot;_NEW&quot;&gt;\nhttp://i.imgur.com/fRrAWgj.jpg&lt;/a&gt; &lt;a href=&quot;\nhttp://i.imgur.com/06C9BRA.jpg&quot; rel=&quot;nofollow&quot; target=&quot;_NEW&quot;&gt;\nhttp://i.imgur.com/06C9BRA.jpg&lt;/a&gt; &lt;a href=&quot;\nhttp://i.imgur.com/qux01p1.jpg&quot; rel=&quot;nofollow&quot; target=&quot;_NEW&quot;&gt;\nhttp://i.imgur.com/qux01p1.jpg&lt;/a&gt; &lt;a href=&quot;\nhttp://i.imgur.com/fRHFDTP.jpg&quot; rel=&quot;nofollow&quot; target=&quot;_NEW&quot;&gt;\nhttp://i.imgur.com/fRHFDTP.jpg&lt;/a&gt; &lt;a href=&quot;\nhttp://i.imgur.com/tevGi1M.jpg&quot; rel=&quot;nofollow&quot; target=&quot;_NEW&quot;&gt;\nhttp://i.imgur.com/tevGi1M.jpg&lt;/a&gt;\n","torrent":{"xt":"urn:btih:712f0573ae5b05f843454f8e8a061cb46333905a","amp;dn":"22.Jump.Street.2014.CAM.XViD-FANTA","amp;tr":["udp%3A%2F%2Ftracker.openbittorrent.com%3A80","udp%3A%2F%2Fopen.demonii.com%3A1337","udp%3A%2F%2Ftracker.coppersurfer.tk%3A6969","udp%3A%2F%2Fexodus.desync.com%3A6969"],"infoHash":"712f0573ae5b05f843454f8e8a061cb46333905a","infoHashBuffer":{"type":"Buffer","data":[113,47,5,115,174,91,5,248,67,69,79,142,138,6,28,180,99,51,144,90]},"announce":[],"urlList":[]}}